<svg xmlns="http://www.w3.org/2000/svg" width="1024" height="1024" viewBox="0 0 1024 1024">
<rect x="0" y="0" width="1024" height="1024" rx="205" ry="205" fill="#0d1117"/>
<rect x="150.0" y="150.0" width="116.8" height="116.8" rx="25.7" ry="25.7" fill="#21262d"/>
<rect x="301.8" y="150.0" width="116.8" height="116.8" rx="25.7" ry="25.7" fill="#21262d"/>
<rect x="453.6" y="150.0" width="116.8" height="116.8" rx="25.7" ry="25.7" fill="#21262d"/>
<rect x="605.4" y="150.0" width="116.8" height="116.8" rx="25.7" ry="25.7" fill="#21262d"/>
<rect x="757.2" y="150.0" width="116.8" height="116.8" rx="25.7" ry="25.7" fill="#26a641"/>
<rect x="150.0" y="301.8" width="116.8" height="116.8" rx="25.7" ry="25.7" fill="#21262d"/>
<rect x="301.8" y="301.8" width="116.8" height="116.8" rx="25.7" ry="25.7" fill="#21262d"/>
<rect x="453.6" y="301.8" width="116.8" height="116.8" rx="25.7" ry="25.7" fill="#21262d"/>
<rect x="605.4" y="301.8" width="116.8" height="116.8" rx="25.7" ry="25.7" fill="#26a641"/>
<rect x="757.2" y="301.8" width="116.8" height="116.8" rx="25.7" ry="25.7" fill="#39d353"/>
<rect x="150.0" y="453.6" width="116.8" height="116.8" rx="25.7" ry="25.7" fill="#21262d"/>
<rect x="301.8" y="453.6" width="116.8" height="116.8" rx="25.7" ry="25.7" fill="#21262d"/>
<rect x="453.6" y="453.6" width="116.8" height="116.8" rx="25.7" ry="25.7" fill="#26a641"/>
<rect x="605.4" y="453.6" width="116.8" height="116.8" rx="25.7" ry="25.7" fill="#39d353"/>
<rect x="757.2" y="453.6" width="116.8" height="116.8" rx="25.7" ry="25.7" fill="#39d353"/>
<rect x="150.0" y="605.4" width="116.8" height="116.8" rx="25.7" ry="25.7" fill="#21262d"/>
<rect x="301.8" y="605.4" width="116.8" height="116.8" rx="25.7" ry="25.7" fill="#26a641"/>
<rect x="453.6" y="605.4" width="116.8" height="116.8" rx="25.7" ry="25.7" fill="#39d353"/>
<rect x="605.4" y="605.4" width="116.8" height="116.8" rx="25.7" ry="25.7" fill="#39d353"/>
<rect x="757.2" y="605.4" width="116.8" height="116.8" rx="25.7" ry="25.7" fill="#26a641"/>
<rect x="150.0" y="757.2" width="116.8" height="116.8" rx="25.7" ry="25.7" fill="#26a641"/>
<rect x="301.8" y="757.2" width="116.8" height="116.8" rx="25.7" ry="25.7" fill="#39d353"/>
<rect x="453.6" y="757.2" width="116.8" height="116.8" rx="25.7" ry="25.7" fill="#39d353"/>
<rect x="605.4" y="757.2" width="116.8" height="116.8" rx="25.7" ry="25.7" fill="#26a641"/>
<rect x="757.2" y="757.2" width="116.8" height="116.8" rx="25.7" ry="25.7" fill="#21262d"/>
</svg>
